HIERARCHY
ROOT hip
{
	OFFSET 0.000000 0.000000 0.000000 
	CHANNELS 6 Xposition Yposition Zposition Xrotation Zrotation Yrotation
	JOINT abdomen
	{
		OFFSET 0.000000 3.402643 0.000000 
		CHANNELS 3 Xrotation Zrotation Yrotation
		JOINT chest
		{
			OFFSET 0.000000 8.438565 -0.680529 
			CHANNELS 3 Xrotation Zrotation Yrotation
			JOINT neck
			{
				OFFSET 0.000000 10.207942 -0.272212 
				CHANNELS 3 Xrotation Zrotation Yrotation
				JOINT head
				{
					OFFSET 0.000000 3.130431 0.000000 
					CHANNELS 3 Xrotation Zrotation Yrotation
					End Site
					{
						OFFSET 0.000000 3.130435 0.000000 
					}
				}
			}
			JOINT lCollar
			{
				OFFSET 3.470700 6.669187 -0.816635 
				CHANNELS 3 Yrotation Zrotation Xrotation
				JOINT lShldr
				{
					OFFSET 3.198488 0.000000 0.000000 
					CHANNELS 3 Zrotation Yrotation Xrotation
					JOINT lForeArm
					{
						OFFSET 10.139888 0.000000 0.000000 
						CHANNELS 3 Yrotation Zrotation Xrotation
						JOINT lHand
						{
							OFFSET 8.370511 0.000000 0.000000 
							CHANNELS 3 Zrotation Yrotation Xrotation
							End Site
							{
								OFFSET 4.083176 0.000000 0.000000 
							}
						}
					}
				}
			}
			JOINT rCollar
			{
				OFFSET -3.470700 6.669187 -0.816635 
				CHANNELS 3 Yrotation Zrotation Xrotation
				JOINT rShldr
				{
					OFFSET -3.198488 0.000000 0.000000 
					CHANNELS 3 Zrotation Yrotation Xrotation
					JOINT rForeArm
					{
						OFFSET -10.139888 0.000000 0.000000 
						CHANNELS 3 Yrotation Zrotation Xrotation
						JOINT rHand
						{
							OFFSET -8.370511 0.000000 0.000000 
							CHANNELS 3 Zrotation Yrotation Xrotation
							End Site
							{
								OFFSET -4.083176 0.000000 0.000000 
							}
						}
					}
				}
			}
		}
	}
	JOINT lThigh
	{
		OFFSET 5.308129 -1.633274 1.361059 
		CHANNELS 3 Xrotation Zrotation Yrotation
		JOINT lShin
		{
			OFFSET -2.041588 -20.007561 0.000000 
			CHANNELS 3 Xrotation Zrotation Yrotation
			JOINT lFoot
			{
				OFFSET 0.000000 -19.190928 -1.224953 
				CHANNELS 3 Xrotation Yrotation Zrotation
				End Site
				{
					OFFSET 0.000000 -2.449906 4.627600 
				}
			}
		}
	}
	JOINT rThigh
	{
		OFFSET -5.308129 -1.633274 1.361059 
		CHANNELS 3 Xrotation Zrotation Yrotation
		JOINT rShin
		{
			OFFSET 2.041588 -20.007561 0.000000 
			CHANNELS 3 Xrotation Zrotation Yrotation
			JOINT rFoot
			{
				OFFSET 0.000000 -19.190928 -1.224953 
				CHANNELS 3 Xrotation Yrotation Zrotation
				End Site
				{
					OFFSET 0.000000 -2.449906 4.627600 
				}
			}
		}
	}
}
MOTION
Frames: 20
Frame Time: 0.016667
6.422402 44.126209 35.079075 -7.871094 -0.615234 -81.328117 0.000000 0.000000 0.000000 0.986328 0.087891 -0.380844 9.501953 0.205078 26.054724 0.781250 -9.218728 27.303175 -9.677734 -15.986329 4.104252 -65.283203 -66.708984 29.873840 -122.363274 -2.558594 -4.032767 52.031250 3.623047 -9.628288 4.931641 20.068361 2.994696 76.289063 31.396481 59.501949 124.501961 -4.873047 48.448093 -7.685547 6.582031 -6.826171 -7.428866 -1.484614 12.790107 23.400967 -5.371726 34.196987 -13.156204 -0.597768 3.251433 -7.993916 -6.832262 -1.740639 41.701824 -2.168366 -5.623848 -21.122704 -1.528291 5.981782 
6.545561 44.230732 35.314812 -7.412109 -0.439453 -82.500084 0.000000 0.000000 0.000000 0.820313 0.205078 -0.605469 8.730468 -0.644531 25.820313 -0.195313 -8.369140 27.617189 -10.449220 -16.230469 3.505860 -66.738281 -67.255859 32.451176 -122.041016 -2.578125 -4.306201 51.396488 3.476563 -9.647844 4.707031 19.921873 2.291595 76.767578 30.185547 58.935543 124.746094 -4.912109 49.131691 -7.744140 6.552734 -6.834823 -7.449059 -1.592008 11.825643 22.405842 -5.596762 36.157894 -12.715659 -0.662208 3.826511 -6.434842 -6.913218 -2.332694 37.655060 -1.728534 -5.338842 -22.056221 -1.067430 3.905818 
6.648377 44.337513 35.489407 -6.953125 -0.419922 -83.603516 0.000000 0.000000 0.000000 0.693359 0.205078 -0.751953 7.919922 -1.035156 25.829901 -0.498047 -7.617188 27.968750 -11.083984 -16.406250 3.049634 -68.505859 -67.861328 35.703125 -121.464844 -2.568359 -4.199219 51.132816 3.535156 -9.599007 4.306641 20.126953 1.767578 76.943359 29.052736 58.300781 125.048828 -4.921875 49.619141 -8.183594 6.591797 -6.912940 -7.416808 -1.455513 11.160467 21.750975 -5.771103 38.099808 -12.309575 -0.587162 3.393450 -4.509072 -6.841226 -2.193150 33.284527 -1.347929 -4.644536 -22.718243 -0.425634 1.372061 
6.732683 44.431423 35.630157 -6.572266 -0.517578 -84.687592 0.000000 0.000000 0.000000 0.605469 0.322266 -0.820258 7.431641 -1.298828 25.937279 -0.566406 -7.275403 28.182316 -11.552734 -15.908204 2.795645 -71.748047 -68.369141 39.511719 -121.152351 -2.587891 -4.433594 50.712891 3.378906 -9.628328 4.052734 20.322266 1.432155 76.806641 27.910158 57.490234 125.664063 -4.873047 49.257816 -8.330078 6.621094 -6.943359 -6.935207 -1.377840 10.723619 20.552559 -5.945279 39.567959 -11.984976 -0.608847 3.695837 -2.440967 -6.814008 -2.376293 28.849152 -0.908679 -4.511745 -23.529160 0.258644 -1.263884 
6.834091 44.583141 35.715485 -6.035156 -0.351563 -85.371094 0.000000 0.000000 0.000000 0.439453 0.654297 -1.123047 7.587891 -1.953125 25.575838 -2.050781 -7.500000 28.934273 -12.636720 -15.527344 2.236328 -72.880859 -68.652344 41.123714 -121.132820 -2.607422 -4.658204 50.224609 3.320313 -9.618574 3.730469 20.185341 0.797433 77.148438 26.855469 57.011719 126.035156 -4.863282 49.453953 -8.574219 6.074218 -6.923828 -6.522014 -1.328191 9.881976 18.686214 -5.810448 41.092983 -11.210302 -0.671305 4.386108 -0.956684 -6.440075 -2.348821 24.917830 -0.537451 -4.904764 -22.852268 0.762392 -3.252644 
6.963294 44.741886 35.763279 -5.488281 -0.410156 -86.279373 0.000000 0.000000 0.000000 0.380859 0.957030 -1.327963 6.445313 -3.027344 25.771486 -2.226563 -6.123047 29.345699 -12.841797 -15.712892 2.080078 -74.169930 -68.964844 43.603516 -121.132820 -2.607422 -4.794922 49.931641 3.095703 -9.697266 3.105469 20.244139 0.615234 77.197266 25.966797 56.796875 126.494133 -4.853516 49.589848 -8.769531 5.683593 -6.922861 -5.945454 -1.132761 9.401011 16.950024 -5.604285 42.445469 -10.284753 -0.673987 4.776390 0.029083 -5.786879 -1.179091 22.035797 -0.479462 -5.630295 -21.457815 0.947684 -4.213003 
7.110382 44.853199 35.823704 -5.234375 -0.517578 -87.343834 0.000000 0.000000 0.000000 0.390625 1.044921 -1.435371 4.433594 -3.457031 26.102926 -0.839844 -5.322279 29.696301 -12.636719 -15.019533 2.167969 -77.119141 -68.916023 47.002605 -121.425781 -2.607422 -4.833540 49.814453 2.656250 -9.901890 2.158203 20.195314 0.751953 77.080078 25.009766 57.220924 127.119141 -4.814454 49.560547 -9.140626 5.087891 -6.923828 -5.380257 -1.337791 8.914128 15.320527 -5.186796 43.897530 -9.395359 -0.638867 5.074980 0.468732 -5.382565 0.225866 20.314438 -0.805084 -6.105721 -20.266211 0.957692 -4.468358 
7.213567 44.968922 35.874233 -5.185547 -0.517578 -88.486328 0.000000 0.000000 0.000000 0.400391 1.103514 -1.513486 3.769531 -3.994141 26.405567 -1.191406 -5.253906 30.156252 -12.509765 -14.404297 2.238757 -79.482422 -69.101563 49.404938 -121.601563 -2.607422 -4.901899 49.638672 2.509765 -9.960509 1.484375 19.619141 0.904924 77.255859 24.277346 57.914169 127.519539 -4.755859 48.848469 -9.921876 5.029297 -7.031250 -4.540150 -1.864803 8.130213 12.897110 -4.596041 45.703369 -8.035840 -0.606102 5.246082 0.888621 -5.259037 0.254927 18.622810 -1.380538 -5.241094 -19.208576 0.996220 -4.784470 
7.302975 45.101566 35.898792 -5.048828 -0.292969 -89.130905 0.000000 0.000000 0.000000 0.283203 1.240234 -1.699007 3.535156 -4.404297 26.142578 -1.669922 -5.400390 30.614315 -13.056641 -14.374999 1.796875 -80.634766 -69.189453 50.947262 -121.562508 -2.626953 -5.214843 49.384766 2.841797 -9.765626 1.093750 19.345703 0.498047 77.167969 23.603516 57.806644 127.675781 -4.716797 48.369946 -10.078124 4.902344 -7.049945 -3.715555 -2.312844 7.234946 10.222610 -3.924222 47.226086 -6.729459 -0.532620 5.668543 1.609212 -5.248959 -2.493601 16.219294 -2.002470 -1.930574 -17.970514 1.043702 -5.369708 
7.388282 45.229687 35.911057 -4.794922 -0.009766 -89.492188 0.000000 0.000000 0.000000 0.146484 1.494141 -1.884766 2.353516 -5.507774 26.249224 -1.259766 -4.287109 30.908205 -13.574219 -14.433594 1.308594 -81.738281 -69.287109 52.451805 -121.445313 -2.646484 -5.448769 49.707031 2.539063 -9.940973 0.703125 19.189453 -0.003210 76.855469 23.046875 57.187500 127.666016 -4.746094 48.926586 -10.058594 5.214844 -7.080079 -2.903587 -2.506397 6.549624 7.566180 -3.371992 48.296288 -5.654085 -0.532863 5.982939 2.439947 -5.202266 -5.829142 13.527899 -2.138653 1.687766 -16.459099 1.182585 -6.107262 
7.449923 45.341236 35.909386 -4.570313 0.175781 -89.707031 0.000000 0.000000 0.000000 0.019531 1.591797 -2.011719 1.562500 -5.380835 26.014814 -0.546875 -4.492188 31.181637 -14.140625 -14.072266 0.859375 -83.203125 -69.208984 54.229153 -121.171875 -2.626953 -5.077677 49.414063 2.480469 -9.941405 0.175781 19.355459 -0.491518 76.357422 22.695313 56.605331 127.851563 -4.765625 49.258629 -9.921876 4.755859 -7.011719 -2.437183 -2.653255 6.070755 5.867657 -2.804493 48.674984 -4.699650 -0.430471 5.534504 3.231618 -5.106483 -7.635088 11.252827 -1.913981 3.779897 -15.024321 1.138219 -6.456670 
7.519712 45.416676 35.881630 -4.306641 0.468750 -90.068275 0.000000 0.000000 0.000000 -0.136719 1.718750 -2.119140 0.888672 -5.117188 25.682720 -0.087891 -5.126954 31.357422 -14.619141 -13.671874 0.353871 -84.082031 -69.316406 55.234375 -121.035156 -2.636719 -5.136718 49.248047 2.656250 -9.843297 0.029297 19.121094 -1.025391 76.572266 22.490234 56.419750 127.958992 -4.755859 49.209793 -10.214844 4.658203 -7.041016 -2.138355 -2.586728 5.831249 4.355510 -2.542712 49.092255 -4.074512 -0.408544 6.000197 3.552261 -5.055953 -8.667869 9.660602 -1.347601 5.325814 -14.011896 1.092481 -6.588995 
7.607858 45.432995 35.831448 -4.072266 0.527344 -90.429596 0.000000 0.000000 0.000000 -0.185547 1.845703 -2.216797 0.527344 -5.126945 25.419083 -0.068359 -5.302734 31.435549 -14.941406 -13.369142 0.226868 -84.833984 -69.619141 55.967411 -120.878914 -2.646484 -5.400391 49.238281 2.216797 -10.058593 -0.166016 19.013670 -1.201172 76.884766 22.695313 56.370956 127.968742 -4.755859 49.277340 -10.039063 4.619141 -7.011719 -2.058105 -2.332063 5.826467 3.790068 -2.504448 49.303631 -3.877494 -0.432790 6.515658 3.707930 -4.830165 -8.799399 8.789452 -1.153337 5.861247 -13.350298 1.092957 -6.776694 
7.724927 45.432995 35.776749 -3.896484 0.595703 -90.839737 0.000000 0.000000 0.000000 -0.195313 1.923828 -2.285156 0.166016 -5.107422 25.332031 -0.048828 -5.312500 31.572266 -15.097657 -12.763671 0.273437 -85.800781 -69.853516 56.748047 -120.937500 -2.617188 -4.990234 49.443359 2.167969 -10.097284 -0.488281 19.355469 -1.210938 76.933594 23.398439 56.289063 127.968758 -4.707032 48.575016 -9.423828 4.687500 -6.923028 -2.423591 -2.037731 5.940701 4.102414 -2.524193 49.538147 -3.888153 -0.457978 6.621688 3.666461 -4.788188 -9.052673 8.292650 -0.712937 6.612782 -12.687242 1.150555 -7.381457 
7.828005 45.432995 35.743496 -3.876954 0.488281 -91.503906 0.000000 0.000000 0.000000 -0.185547 1.953125 -2.255859 -0.009766 -5.126953 25.537111 0.097656 -5.302732 31.669033 -14.951171 -12.431641 0.314602 -86.123047 -69.853516 56.856064 -121.074211 -2.617188 -4.980023 49.052734 2.265625 -10.009378 -0.410156 19.589863 -1.214210 77.011719 23.330078 56.810509 127.900391 -4.765625 49.472660 -10.087892 4.746094 -7.031250 -2.610235 -1.920713 5.942192 4.385303 -2.549518 50.213623 -3.847420 -0.422280 6.688763 3.454756 -4.773442 -8.987272 8.429601 -0.751889 7.298139 -12.451659 1.168457 -7.619133 
7.931416 45.432995 35.715126 -3.818359 0.468750 -92.167892 0.000000 0.000000 0.000000 -0.205078 1.914062 -2.197266 0.078125 -4.638671 25.712103 -0.068359 -5.742188 31.787109 -14.716797 -11.943846 0.216725 -86.787109 -69.804680 57.188103 -121.074211 -2.626953 -5.116740 49.042969 2.460938 -9.912109 -0.439453 19.853539 -1.311909 77.041016 23.359375 57.191368 127.900391 -4.775391 49.521488 -10.244140 4.814453 -7.059727 -3.071527 -1.746969 6.017471 5.097677 -2.549592 50.834927 -3.929570 -0.446636 6.447371 2.987312 -4.599102 -8.548927 8.832008 -1.035352 7.469973 -12.411506 1.182631 -7.644223 
7.993756 45.432995 35.687122 -3.798828 0.371094 -92.607361 0.000000 0.000000 0.000000 -0.126953 1.894531 -2.158203 0.273437 -4.570313 25.800781 -0.341797 -5.683594 31.748045 -14.492187 -11.669923 0.539085 -87.470703 -70.087891 57.822853 -120.957039 -2.607422 -4.707031 49.267578 2.880860 -9.726069 -0.419922 19.892578 -0.976562 77.128906 23.779299 57.201202 127.851563 -4.775391 49.522301 -10.517579 4.755859 -7.089844 -3.247327 -1.629976 6.075665 5.527186 -2.616642 51.275440 -4.049351 -0.444616 6.323363 2.733736 -4.569811 -8.385547 9.290320 -1.152184 7.700085 -12.326964 1.225312 -7.969443 
8.026412 45.432995 35.657688 -3.808594 0.205080 -92.910156 0.000000 0.000000 0.000000 -0.224609 1.845703 -2.226563 0.537109 -4.033203 25.546875 -0.058594 -5.986328 31.982416 -14.833986 -11.269531 0.146489 -86.806641 -69.218750 56.767578 -120.927734 -2.607422 -4.647994 49.277348 2.822266 -9.765143 -0.576172 19.970734 -1.380286 77.158203 23.105469 57.285160 127.910156 -4.765625 49.365238 -10.468750 4.824219 -7.089843 -3.078212 -1.609406 6.082174 5.458139 -2.581279 51.496071 -4.004953 -0.423162 6.119901 2.680375 -4.542959 -8.306046 9.523858 -1.239742 7.974071 -12.313280 1.237641 -7.919682 
8.047661 45.432995 35.624439 -3.779296 0.126953 -93.007790 0.000000 0.000000 0.000000 -0.087891 1.884766 -2.226563 0.585938 -4.248047 25.439455 0.029297 -5.859375 31.699219 -14.746092 -11.572265 0.714849 -86.962891 -69.921875 57.158798 -120.820313 -2.626953 -5.019083 49.306637 2.685547 -9.833984 -0.693359 19.941404 -0.804112 77.021484 23.769531 56.982422 127.714836 -4.775391 49.423824 -10.791015 4.853516 -7.157375 -2.999686 -1.531040 6.127758 5.409488 -2.570464 51.577679 -3.916527 -0.407425 6.103833 2.663880 -4.431161 -8.108981 9.581697 -1.346911 7.851658 -12.221256 1.181058 -7.783367 
8.072678 45.432995 35.581890 -3.789063 0.136719 -93.007813 0.000000 0.000000 0.000000 -0.029297 1.884766 -2.265625 0.566406 -4.296875 25.253908 0.185547 -5.937497 31.629866 -14.833986 -11.777344 0.976563 -86.855469 -70.244141 57.246666 -120.751953 -2.617188 -4.950726 49.277344 2.812500 -9.775392 -0.761719 19.990236 -0.576172 76.933594 24.130859 56.875004 127.646484 -4.775391 49.375004 -10.986328 4.785156 -7.167253 -3.097988 -1.512482 6.136479 5.497816 -2.499793 51.624866 -3.853512 -0.401892 6.031073 2.505331 -4.357538 -7.919941 9.670318 -1.378133 7.481054 -11.806414 1.106399 -7.596780 
